<svg id="my-svg" width="100%" xmlns="http://www.w3.org/2000/svg" xmlns:xlink="http://www.w3.org/1999/xlink" class="flowchart" style="max-width: 919.821px; background-color: transparent;" viewBox="4 4 919.8 332" role="graphics-document document" aria-roledescription="flowchart-v2"><style>#my-svg{font-family:Gmarket Sans,Gmarket Sans TTF,-apple-system,Apple SD Gothic Neo,sans-serif;font-size:14px;fill:#292725;}@keyframes edge-animation-frame{from{stroke-dashoffset:0;}}@keyframes dash{to{stroke-dashoffset:0;}}#my-svg .edge-animation-slow{stroke-dasharray:9,5!important;stroke-dashoffset:900;animation:dash 50s linear infinite;stroke-linecap:round;}#my-svg .edge-animation-fast{stroke-dasharray:9,5!important;stroke-dashoffset:900;animation:dash 20s linear infinite;stroke-linecap:round;}#my-svg .error-icon{fill:#FFFFFF;}#my-svg .error-text{fill:#292725;stroke:#292725;}#my-svg .edge-thickness-normal{stroke-width:1px;}#my-svg .edge-thickness-thick{stroke-width:3.5px;}#my-svg .edge-pattern-solid{stroke-dasharray:0;}#my-svg .edge-thickness-invisible{stroke-width:0;fill:none;}#my-svg .edge-pattern-dashed{stroke-dasharray:3;}#my-svg .edge-pattern-dotted{stroke-dasharray:2;}#my-svg .marker{fill:#696866;stroke:#696866;}#my-svg .marker.cross{stroke:#696866;}#my-svg svg{font-family:Gmarket Sans,Gmarket Sans TTF,-apple-system,Apple SD Gothic Neo,sans-serif;font-size:14px;}#my-svg p{margin:0;}#my-svg .label{font-family:Gmarket Sans,Gmarket Sans TTF,-apple-system,Apple SD Gothic Neo,sans-serif;color:#292725;}#my-svg .cluster-label text{fill:#292725;}#my-svg .cluster-label span{color:#292725;}#my-svg .cluster-label span p{background-color:transparent;}#my-svg .label text,#my-svg span{fill:#292725;color:#292725;}#my-svg .node rect,#my-svg .node circle,#my-svg .node ellipse,#my-svg .node polygon,#my-svg .node path{fill:#FFFFFF;stroke:#292725;stroke-width:1px;}#my-svg .rough-node .label text,#my-svg .node .label text,#my-svg .image-shape .label,#my-svg .icon-shape .label{text-anchor:middle;}#my-svg .node .katex path{fill:#000;stroke:#000;stroke-width:1px;}#my-svg .rough-node .label,#my-svg .node .label,#my-svg .image-shape .label,#my-svg .icon-shape .label{text-align:center;}#my-svg .node.clickable{cursor:pointer;}#my-svg .root .anchor path{fill:#696866!important;stroke-width:0;stroke:#696866;}#my-svg .arrowheadPath{fill:rgba(255, 255, 255, 0);}#my-svg .edgePaths .path{stroke:#696866;stroke-width:1px;}#my-svg .flowchart-link{stroke:#696866;fill:none;}#my-svg .edgeLabel{background-color:#FFFFFF;text-align:center;}#my-svg .edgeLabel p{background-color:#FFFFFF;}#my-svg .edgeLabel rect{opacity:0.5;background-color:#FFFFFF;fill:#FFFFFF;}#my-svg .labelBkg{background-color:rgba(255, 255, 255, 0.5);}#my-svg .cluster rect{fill:#FFFFFF;stroke:#DFDFDE;stroke-width:1px;}#my-svg .cluster text{fill:#292725;}#my-svg .cluster span{color:#292725;}#my-svg .node .collapsed-indicator{fill:#DFDFDE;stroke:none;opacity:0.6;}#my-svg .node .collapsed-separator{stroke:#DFDFDE;stroke-width:0.75px;}#my-svg div.mermaidTooltip{position:absolute;text-align:center;max-width:200px;padding:2px;font-family:Gmarket Sans,Gmarket Sans TTF,-apple-system,Apple SD Gothic Neo,sans-serif;font-size:12px;background:#FFFFFF;border:1px solid #DFDFDE;border-radius:2px;pointer-events:none;z-index:100;}#my-svg .flowchartTitleText{text-anchor:middle;font-size:18px;fill:#292725;}#my-svg rect.text{fill:none;stroke-width:0;}#my-svg .icon-shape,#my-svg .image-shape{background-color:#FFFFFF;text-align:center;}#my-svg .icon-shape p,#my-svg .image-shape p{background-color:#FFFFFF;padding:2px;}#my-svg .icon-shape .label rect,#my-svg .image-shape .label rect{opacity:0.5;background-color:#FFFFFF;fill:#FFFFFF;}#my-svg .label-icon{display:inline-block;height:1em;overflow:visible;vertical-align:-0.125em;}#my-svg .node .label-icon path{fill:currentColor;stroke:revert;stroke-width:revert;}#my-svg .node .neo-node{stroke:#292725;}#my-svg [data-look="neo"].node rect,#my-svg [data-look="neo"].cluster rect,#my-svg [data-look="neo"].node polygon{stroke:url(#my-svg-gradient);filter:drop-shadow( 1px 2px 2px rgba(185,185,185,1));}#my-svg [data-look="neo"].swimlane.cluster rect{filter:none;}#my-svg [data-look="neo"].node path{stroke:url(#my-svg-gradient);stroke-width:1px;}#my-svg [data-look="neo"].node .outer-path{filter:drop-shadow( 1px 2px 2px rgba(185,185,185,1));}#my-svg [data-look="neo"].node .neo-line path{stroke:#292725;filter:none;}#my-svg [data-look="neo"].node circle{stroke:url(#my-svg-gradient);filter:drop-shadow( 1px 2px 2px rgba(185,185,185,1));}#my-svg [data-look="neo"].node circle .state-start{fill:#000000;}#my-svg [data-look="neo"].icon-shape .icon{fill:url(#my-svg-gradient);filter:drop-shadow( 1px 2px 2px rgba(185,185,185,1));}#my-svg [data-look="neo"].icon-shape .icon-neo path{stroke:url(#my-svg-gradient);filter:drop-shadow( 1px 2px 2px rgba(185,185,185,1));}#my-svg :root{--mermaid-font-family:"trebuchet ms",verdana,arial,sans-serif;}</style><g><marker id="my-svg_flowchart-v2-pointEnd" class="marker flowchart-v2" viewBox="0 0 10 10" refX="5" refY="5" markerUnits="userSpaceOnUse" markerWidth="8" markerHeight="8" orient="auto"><path d="M 0 0 L 10 5 L 0 10 z" class="arrowMarkerPath" style="stroke-width: 1; stroke-dasharray: 1, 0;"/></marker><marker id="my-svg_flowchart-v2-pointStart" class="marker flowchart-v2" viewBox="0 0 10 10" refX="4.5" refY="5" markerUnits="userSpaceOnUse" markerWidth="8" markerHeight="8" orient="auto"><path d="M 0 5 L 10 10 L 10 0 z" class="arrowMarkerPath" style="stroke-width: 1; stroke-dasharray: 1, 0;"/></marker><marker id="my-svg_flowchart-v2-pointEnd-margin" class="marker flowchart-v2" viewBox="0 0 11.5 14" refX="11.5" refY="7" markerUnits="userSpaceOnUse" markerWidth="10.5" markerHeight="14" orient="auto"><path d="M 0 0 L 11.5 7 L 0 14 z" class="arrowMarkerPath" style="stroke-width: 0; stroke-dasharray: 1, 0;"/></marker><marker id="my-svg_flowchart-v2-pointStart-margin" class="marker flowchart-v2" viewBox="0 0 11.5 14" refX="1" refY="7" markerUnits="userSpaceOnUse" markerWidth="11.5" markerHeight="14" orient="auto"><polygon points="0,7 11.5,14 11.5,0" class="arrowMarkerPath" style="stroke-width: 0; stroke-dasharray: 1, 0;"/></marker><marker id="my-svg_flowchart-v2-circleEnd" class="marker flowchart-v2" viewBox="0 0 10 10" refX="11" refY="5" markerUnits="userSpaceOnUse" markerWidth="11" markerHeight="11" orient="auto"><circle cx="5" cy="5" r="5" class="arrowMarkerPath" style="stroke-width: 1; stroke-dasharray: 1, 0;"/></marker><marker id="my-svg_flowchart-v2-circleStart" class="marker flowchart-v2" viewBox="0 0 10 10" refX="-1" refY="5" markerUnits="userSpaceOnUse" markerWidth="11" markerHeight="11" orient="auto"><circle cx="5" cy="5" r="5" class="arrowMarkerPath" style="stroke-width: 1; stroke-dasharray: 1, 0;"/></marker><marker id="my-svg_flowchart-v2-circleEnd-margin" class="marker flowchart-v2" viewBox="0 0 10 10" refY="5" refX="12.25" markerUnits="userSpaceOnUse" markerWidth="14" markerHeight="14" orient="auto"><circle cx="5" cy="5" r="5" class="arrowMarkerPath" style="stroke-width: 0; stroke-dasharray: 1, 0;"/></marker><marker id="my-svg_flowchart-v2-circleStart-margin" class="marker flowchart-v2" viewBox="0 0 10 10" refX="-2" refY="5" markerUnits="userSpaceOnUse" markerWidth="14" markerHeight="14" orient="auto"><circle cx="5" cy="5" r="5" class="arrowMarkerPath" style="stroke-width: 0; stroke-dasharray: 1, 0;"/></marker><marker id="my-svg_flowchart-v2-crossEnd" class="marker cross flowchart-v2" viewBox="0 0 11 11" refX="12" refY="5.2" markerUnits="userSpaceOnUse" markerWidth="11" markerHeight="11" orient="auto"><path d="M 1,1 l 9,9 M 10,1 l -9,9" class="arrowMarkerPath" style="stroke-width: 2; stroke-dasharray: 1, 0;"/></marker><marker id="my-svg_flowchart-v2-crossStart" class="marker cross flowchart-v2" viewBox="0 0 11 11" refX="-1" refY="5.2" markerUnits="userSpaceOnUse" markerWidth="11" markerHeight="11" orient="auto"><path d="M 1,1 l 9,9 M 10,1 l -9,9" class="arrowMarkerPath" style="stroke-width: 2; stroke-dasharray: 1, 0;"/></marker><marker id="my-svg_flowchart-v2-crossEnd-margin" class="marker cross flowchart-v2" viewBox="0 0 15 15" refX="17.7" refY="7.5" markerUnits="userSpaceOnUse" markerWidth="12" markerHeight="12" orient="auto"><path d="M 1,1 L 14,14 M 1,14 L 14,1" class="arrowMarkerPath" style="stroke-width: 2.5;"/></marker><marker id="my-svg_flowchart-v2-crossStart-margin" class="marker cross flowchart-v2" viewBox="0 0 15 15" refX="-3.5" refY="7.5" markerUnits="userSpaceOnUse" markerWidth="12" markerHeight="12" orient="auto"><path d="M 1,1 L 14,14 M 1,14 L 14,1" class="arrowMarkerPath" style="stroke-width: 2.5; stroke-dasharray: 1, 0;"/></marker><g class="root"><g class="clusters"/><g class="edges edgePaths"><path d="M164,138.5L176.9,138.5Q184,138.5 184,131.4L184,88.8Q184,81.8 191.1,81.8L200,81.8" id="my-svg-L_A_PR_0" class="edge-thickness-normal edge-pattern-solid edge-thickness-normal edge-pattern-solid flowchart-link" style="stroke-dasharray: 0 0 83.42164611816406 4; stroke-dashoffset: 0;;" data-edge="true" data-et="edge" data-id="L_A_PR_0" data-points="W3sieCI6MTY0LCJ5IjoxMzguNX0seyJ4IjoxODQsInkiOjEzOC41fSx7IngiOjE4NCwieSI6ODEuNzUwMDAwMDAwMDAwMDF9LHsieCI6MjA0LCJ5Ijo4MS43NTAwMDAwMDAwMDAwMX1d" data-look="neo" marker-end="url(#my-svg_flowchart-v2-pointEnd-margin)"/><path d="M356,81.8L373.7,81.8Q376,81.8 376,84L376,84Q376,86.3 378.3,86.3L396,86.3L424.2,86.3" id="my-svg-L_PR_C_0" class="edge-thickness-normal edge-pattern-solid edge-thickness-normal edge-pattern-solid flowchart-link" style="stroke-dasharray: 0 0 67.02326965332031 4; stroke-dashoffset: 0;;" data-edge="true" data-et="edge" data-id="L_PR_C_0" data-points="W3sieCI6MzU2LCJ5Ijo4MS43NTAwMDAwMDAwMDAwMX0seyJ4IjozNzYsInkiOjgxLjc1MDAwMDAwMDAwMDAxfSx7IngiOjM3NiwieSI6ODYuMzMzMzMzMzMzMzMzMzR9LHsieCI6Mzk2LCJ5Ijo4Ni4zMzMzMzMzMzMzMzMzNH0seyJ4Ijo0MjguMTY2NzYyODI4ODI2OSwieSI6ODYuMzMzMzMzMzMzMzMzMzR9XQ==" data-look="neo" marker-end="url(#my-svg_flowchart-v2-pointEnd-margin)"/><path d="M428.2,150.7L396,150.7L378.3,150.7Q376,150.7 376,153L376,153Q376,155.2 373.7,155.2L168,155.2" id="my-svg-L_C_A_0" class="edge-thickness-normal edge-pattern-solid edge-thickness-normal edge-pattern-solid flowchart-link" style="stroke-dasharray: 0 0 259.02325439453125 4; stroke-dashoffset: 0;;" data-edge="true" data-et="edge" data-id="L_C_A_0" data-points="W3sieCI6NDI4LjE2Njc2MjgyODgyNjksInkiOjE1MC42NjY2NjY2NjY2NjY2OX0seyJ4IjozOTYsInkiOjE1MC42NjY2NjY2NjY2NjY2OX0seyJ4IjozNzYsInkiOjE1MC42NjY2NjY2NjY2NjY2OX0seyJ4IjozNzYsInkiOjE1NS4yNX0seyJ4IjoxNjQsInkiOjE1NS4yNX1d" data-look="neo" marker-end="url(#my-svg_flowchart-v2-pointEnd-margin)"/><path d="M609,118.5L717.5,118.5Q724.6,118.5 724.6,125.6L724.6,196.5Q724.6,203.6 731.7,203.6L740.6,203.6" id="my-svg-L_C_M_0" class="edge-thickness-normal edge-pattern-solid edge-thickness-normal edge-pattern-solid flowchart-link" style="stroke-dasharray: 0 0 207.34881591796875 4; stroke-dashoffset: 0;;" data-edge="true" data-et="edge" data-id="L_C_M_0" data-points="W3sieCI6NjA5LCJ5IjoxMTguNX0seyJ4Ijo3MjQuNTkzNzUsInkiOjExOC41fSx7IngiOjcyNC41OTM3NSwieSI6MjAzLjU4MzMzMzMzMzMzMzM0fSx7IngiOjc0NC41OTM3NSwieSI6MjAzLjU4MzMzMzMzMzMzMzM0fV0=" data-look="neo" marker-end="url(#my-svg_flowchart-v2-pointEnd-margin)"/><path d="M164,172L176.9,172Q184,172 184,179.1L184,289.9Q184,297 191.1,297L280,297L676.8,297L717.5,297Q724.6,297 724.6,289.9L724.6,219Q724.6,211.9 731.7,211.9L740.6,211.9" id="my-svg-L_A_M_0" class="edge-thickness-normal edge-pattern-dotted edge-thickness-normal edge-pattern-solid flowchart-link" style="stroke-dasharray: 0 0 2 2 2 2 2 2 2 2 2 2 2 2 2 2 2 2 2 2 2 2 2 2 2 2 2 2 2 2 2 2 2 2 2 2 2 2 2 2 2 2 2 2 2 2 2 2 2 2 2 2 2 2 2 2 2 2 2 2 2 2 2 2 2 2 2 2 2 2 2 2 2 2 2 2 2 2 2 2 2 2 2 2 2 2 2 2 2 2 2 2 2 2 2 2 2 2 2 2 2 2 2 2 2 2 2 2 2 2 2 2 2 2 2 2 2 2 2 2 2 2 2 2 2 2 2 2 2 2 2 2 2 2 2 2 2 2 2 2 2 2 2 2 2 2 2 2 2 2 2 2 2 2 2 2 2 2 2 2 2 2 2 2 2 2 2 2 2 2 2 2 2 2 2 2 2 2 2 2 2 2 2 2 2 2 2 2 2 2 2 2 2 2 2 2 2 2 2 2 2 2 2 2 2 2 2 2 2 2 2 2 2 2 2 2 2 2 2 2 2 2 2 2 2 2 2 2 2 2 2 2 2 2 2 2 2 2 2 2 2 2 2 2 2 2 2 2 2 2 2 2 2 2 2 2 2 2 2 2 2 2 2 2 2 2 2 2 2 2 2 2 2 2 2 2 2 2 2 2 2 2 2 2 2 2 2 2 2 2 2 2 2 2 2 2 2 2 2 2 2 2 2 2 2 2 2 2 2 2 2 2 2 2 2 2 2 2 2 2 2 2 2 2 2 2 2 2 2 2 2 2 2 2 2 2 2 2 2 2 2 2 2 2 2 2 2 2 2 2 2 2 2 2 2 2 2 2 2 2 2 2 2 2 2 2 2 2 2 2 2 2 2 2 2 2 2 2 2 2 2 2 2 2 2 2 2 2 4; stroke-dashoffset: 0;;" data-edge="true" data-et="edge" data-id="L_A_M_0" data-points="W3sieCI6MTY0LCJ5IjoxNzJ9LHsieCI6MTg0LCJ5IjoxNzJ9LHsieCI6MTg0LCJ5IjoyOTd9LHsieCI6MjgwLCJ5IjoyOTd9LHsieCI6Njc2Ljc5Njg3NSwieSI6Mjk3fSx7IngiOjcyNC41OTM3NSwieSI6Mjk3fSx7IngiOjcyNC41OTM3NSwieSI6MjExLjkxNjY2NjY2NjY2NjY5fSx7IngiOjc0NC41OTM3NSwieSI6MjExLjkxNjY2NjY2NjY2NjY5fV0=" data-look="neo" marker-end="url(#my-svg_flowchart-v2-pointEnd-margin)"/></g><g class="edgeLabels"><g class="edgeLabel" transform="translate(280, 154.8)"><g class="label" data-id="L_C_A_0" transform="translate(-45.1, -10.5)"><foreignObject width="90.2" height="21"><div xmlns="http://www.w3.org/1999/xhtml" class="labelBkg" style="display: table-cell; white-space: nowrap; line-height: 1.5; max-width: 200px; text-align: center;"><span class="edgeLabel"><p>flags P1 · P2</p></span></div></foreignObject></g></g><g class="edgeLabel" transform="translate(676.8, 118)"><g class="label" data-id="L_C_M_0" transform="translate(-27.8, -10.5)"><foreignObject width="55.6" height="21"><div xmlns="http://www.w3.org/1999/xhtml" class="labelBkg" style="display: table-cell; white-space: nowrap; line-height: 1.5; max-width: 200px; text-align: center;"><span class="edgeLabel"><p>passes</p></span></div></foreignObject></g></g><g class="edgeLabel" transform="translate(502.5, 296.5)"><g class="label" data-id="L_A_M_0" transform="translate(-100, -31.5)"><foreignObject width="200" height="63"><div xmlns="http://www.w3.org/1999/xhtml" class="labelBkg" style="display: table; white-space: break-spaces; line-height: 1.5; max-width: 200px; text-align: center; width: 200px;"><span class="edgeLabel"><p>direct push to main · process bypass<br />never reaches the Critic</p></span></div></foreignObject></g></g></g><g class="nodes"><g class="node default" id="my-svg-flowchart-A-0" data-look="neo" transform="translate(88, 155.2)"><rect class="basic label-container" style="" x="-76" y="-43.5" width="152" height="87"/><g class="label" style="" transform="translate(-60, -31.5)"><rect/><foreignObject width="120" height="63"><div xmlns="http://www.w3.org/1999/xhtml" style="display: table; white-space: break-spaces; line-height: 1.5; max-width: 120px; text-align: center; width: 120px;"><span class="nodeLabel"><p>12 agents<br />same model family</p></span></div></foreignObject></g></g><g class="node default" id="my-svg-flowchart-PR-1" data-look="neo" transform="translate(280, 81.8)"><rect class="basic label-container" style="" x="-76" y="-22.5" width="152" height="45"/><g class="label" style="" transform="translate(-60, -10.5)"><rect/><foreignObject width="120" height="21"><div xmlns="http://www.w3.org/1999/xhtml" style="display: table; white-space: nowrap; line-height: 1.5; max-width: 120px; text-align: center; width: 120px;"><span class="nodeLabel"><p>PR</p></span></div></foreignObject></g></g><g class="node default" id="my-svg-flowchart-C-2" data-look="neo" transform="translate(502.5, 118.5)"><polygon points="106.5,0 213,-106.5 106.5,-213 0,-106.5" class="label-container" transform="translate(-106, 106.5)"/><g class="label" style="" transform="translate(-60, -31.5)"><rect/><foreignObject width="120" height="63"><div xmlns="http://www.w3.org/1999/xhtml" style="display: table; white-space: break-spaces; line-height: 1.5; max-width: 120px; text-align: center; width: 120px;"><span class="nodeLabel"><p>Critic<br />different model family</p></span></div></foreignObject></g></g><g class="node default" id="my-svg-flowchart-M-6" data-look="neo" transform="translate(830.2, 207.8)"><g class="basic label-container outer-path"><path d="M-63.1 -22.5 C-32.4 -22.5, -1.6 -22.5, 63.1 -22.5 C63.1 -22.5, 63.1 -22.5, 63.1 -22.5 C63.6 -22.5, 64 -22.5, 64.6 -22.5 C64.9 -22.4, 65.2 -22.4, 66 -22.3 C66.3 -22.3, 66.7 -22.2, 67.4 -22.1 C67.7 -22, 68 -21.9, 68.8 -21.8 C69.2 -21.6, 69.6 -21.5, 70.2 -21.4 C70.5 -21.3, 70.8 -21.2, 71.6 -20.9 C71.8 -20.7, 72.1 -20.6, 72.9 -20.3 C73.2 -20.1, 73.6 -19.9, 74.2 -19.6 C74.6 -19.3, 75 -19.1, 75.4 -18.9 C75.9 -18.5, 76.3 -18.2, 76.6 -18 C76.9 -17.8, 77.2 -17.5, 77.7 -17.1 C78 -16.9, 78.3 -16.6, 78.8 -16.2 C79 -15.9, 79.3 -15.7, 79.8 -15.1 C80.1 -14.7, 80.5 -14.3, 80.7 -14 C80.9 -13.7, 81.2 -13.4, 81.6 -12.9 C81.8 -12.6, 81.9 -12.3, 82.4 -11.7 C82.5 -11.4, 82.7 -11.1, 83.1 -10.4 C83.3 -10, 83.5 -9.6, 83.7 -9.1 C83.9 -8.6, 84.1 -8.2, 84.2 -7.8 C84.4 -7.4, 84.5 -6.9, 84.7 -6.4 C84.8 -6, 84.9 -5.6, 85.1 -5 C85.1 -4.6, 85.2 -4.1, 85.3 -3.6 C85.4 -3.3, 85.4 -2.9, 85.5 -2.2 C85.6 -1.7, 85.6 -1.1, 85.6 -0.7 C85.6 -0.3, 85.6 0.1, 85.6 0.7 C85.6 1, 85.6 1.3, 85.5 2.2 C85.5 2.6, 85.4 3, 85.3 3.6 C85.2 4.1, 85.1 4.7, 85.1 5 C85 5.3, 84.9 5.7, 84.7 6.4 C84.5 6.9, 84.4 7.4, 84.2 7.8 C84 8.3, 83.8 8.8, 83.7 9.1 C83.5 9.4, 83.4 9.8, 83.1 10.4 C82.8 10.8, 82.6 11.3, 82.4 11.7 C82.1 12.1, 81.8 12.5, 81.6 12.9 C81.3 13.3, 81 13.7, 80.7 14 C80.3 14.5, 80 14.9, 79.8 15.1 C79.5 15.4, 79.2 15.7, 78.8 16.2 C78.5 16.5, 78.1 16.7, 77.7 17.1 C77.4 17.4, 77.1 17.6, 76.6 18 C76.2 18.3, 75.7 18.6, 75.4 18.9 C75.1 19, 74.8 19.2, 74.2 19.6 C73.7 19.9, 73.2 20.1, 72.9 20.3 C72.5 20.5, 72.1 20.6, 71.6 20.9 C71.2 21, 70.8 21.1, 70.2 21.4 C69.7 21.5, 69.2 21.6, 68.8 21.8 C68.3 21.9, 67.7 22, 67.4 22.1 C67.1 22.1, 66.8 22.2, 66 22.3 C65.6 22.4, 65.2 22.4, 64.6 22.5 C64.1 22.5, 63.6 22.5, 63.1 22.5 C63.1 22.5, 63.1 22.5, 63.1 22.5 C25.6 22.5, -12 22.5, -63.1 22.5 C-63.6 22.5, -64.1 22.5, -64.6 22.5 C-65 22.4, -65.4 22.4, -66 22.3 C-66.4 22.2, -66.9 22.2, -67.4 22.1 C-67.8 22, -68.1 21.9, -68.8 21.8 C-69.2 21.6, -69.6 21.5, -70.2 21.4 C-70.5 21.2, -70.9 21.1, -71.6 20.9 C-71.9 20.7, -72.3 20.5, -72.9 20.3 C-73.2 20.1, -73.6 19.9, -74.2 19.6 C-74.6 19.4, -75 19.1, -75.4 18.9 C-75.7 18.7, -75.9 18.5, -76.6 18 C-76.9 17.8, -77.3 17.5, -77.7 17.1 C-78 16.9, -78.2 16.6, -78.8 16.2 C-79.1 15.8, -79.4 15.5, -79.8 15.1 C-80.1 14.7, -80.5 14.3, -80.7 14 C-81 13.7, -81.2 13.3, -81.6 12.9 C-81.7 12.6, -81.9 12.4, -82.4 11.7 C-82.5 11.4, -82.7 11.1, -83.1 10.4 C-83.2 10, -83.4 9.7, -83.7 9.1 C-83.9 8.6, -84.1 8.1, -84.2 7.8 C-84.4 7.3, -84.5 6.8, -84.7 6.4 C-84.8 6.1, -84.9 5.7, -85.1 5 C-85.2 4.5, -85.3 4, -85.3 3.6 C-85.4 3.2, -85.4 2.8, -85.5 2.2 C-85.5 1.7, -85.6 1.3, -85.6 0.7 C-85.6 0.2, -85.6 -0.3, -85.6 -0.7 C-85.6 -1.3, -85.5 -1.8, -85.5 -2.2 C-85.5 -2.6, -85.4 -3, -85.3 -3.6 C-85.3 -3.9, -85.2 -4.2, -85.1 -5 C-84.9 -5.4, -84.8 -5.9, -84.7 -6.4 C-84.6 -6.7, -84.5 -7, -84.2 -7.8 C-84.1 -8.1, -84 -8.5, -83.7 -9.1 C-83.5 -9.6, -83.2 -10.1, -83.1 -10.4 C-82.9 -10.8, -82.7 -11.1, -82.4 -11.7 C-82.1 -12.1, -81.9 -12.4, -81.6 -12.9 C-81.3 -13.2, -81.1 -13.5, -80.7 -14 C-80.4 -14.4, -80 -14.8, -79.8 -15.1 C-79.5 -15.4, -79.2 -15.7, -78.8 -16.2 C-78.4 -16.5, -78.1 -16.8, -77.7 -17.1 C-77.4 -17.4, -77 -17.7, -76.6 -18 C-76.2 -18.3, -75.8 -18.6, -75.4 -18.9 C-75.1 -19, -74.8 -19.2, -74.2 -19.6 C-73.7 -19.8, -73.3 -20.1, -72.9 -20.3 C-72.5 -20.5, -72.1 -20.6, -71.6 -20.9 C-71.2 -21, -70.8 -21.2, -70.2 -21.4 C-69.7 -21.5, -69.2 -21.7, -68.8 -21.8 C-68.3 -21.9, -67.8 -22, -67.4 -22.1 C-67.1 -22.1, -66.7 -22.2, -66 -22.3 C-65.7 -22.3, -65.4 -22.4, -64.6 -22.5 C-64.3 -22.5, -64 -22.5, -63.1 -22.5 C-63.1 -22.5, -63.1 -22.5, -63.1 -22.5" stroke="none" stroke-width="0" fill="#FFFFFF" style=""/><path d="M-63.1 -22.5 C-28.2 -22.5, 6.7 -22.5, 63.1 -22.5 M-63.1 -22.5 C-28 -22.5, 7.2 -22.5, 63.1 -22.5 M63.1 -22.5 C63.1 -22.5, 63.1 -22.5, 63.1 -22.5 M63.1 -22.5 C63.1 -22.5, 63.1 -22.5, 63.1 -22.5 M63.1 -22.5 C63.6 -22.5, 64.1 -22.5, 64.6 -22.5 M63.1 -22.5 C63.7 -22.5, 64.2 -22.5, 64.6 -22.5 M64.6 -22.5 C64.9 -22.4, 65.3 -22.4, 66 -22.3 M64.6 -22.5 C64.9 -22.4, 65.2 -22.4, 66 -22.3 M66 -22.3 C66.5 -22.2, 67.1 -22.1, 67.4 -22.1 M66 -22.3 C66.4 -22.3, 66.8 -22.2, 67.4 -22.1 M67.4 -22.1 C67.8 -22, 68.2 -21.9, 68.8 -21.8 M67.4 -22.1 C67.9 -22, 68.4 -21.9, 68.8 -21.8 M68.8 -21.8 C69.3 -21.6, 69.8 -21.5, 70.2 -21.4 M68.8 -21.8 C69.2 -21.6, 69.7 -21.5, 70.2 -21.4 M70.2 -21.4 C70.5 -21.2, 70.9 -21.1, 71.6 -20.9 M70.2 -21.4 C70.6 -21.2, 71 -21, 71.6 -20.9 M71.6 -20.9 C72.1 -20.6, 72.6 -20.4, 72.9 -20.3 M71.6 -20.9 C72.1 -20.6, 72.6 -20.4, 72.9 -20.3 M72.9 -20.3 C73.2 -20.1, 73.6 -19.9, 74.2 -19.6 M72.9 -20.3 C73.2 -20.1, 73.6 -19.9, 74.2 -19.6 M74.2 -19.6 C74.5 -19.4, 74.8 -19.2, 75.4 -18.9 M74.2 -19.6 C74.5 -19.4, 74.8 -19.2, 75.4 -18.9 M75.4 -18.9 C75.6 -18.7, 75.9 -18.5, 76.6 -18 M75.4 -18.9 C75.7 -18.7, 76 -18.4, 76.6 -18 M76.6 -18 C76.9 -17.7, 77.3 -17.5, 77.7 -17.1 M76.6 -18 C76.9 -17.8, 77.3 -17.5, 77.7 -17.1 M77.7 -17.1 C78.1 -16.8, 78.6 -16.4, 78.8 -16.2 M77.7 -17.1 C78 -16.9, 78.2 -16.7, 78.8 -16.2 M78.8 -16.2 C79.1 -15.8, 79.4 -15.5, 79.8 -15.1 M78.8 -16.2 C79 -15.9, 79.2 -15.7, 79.8 -15.1 M79.8 -15.1 C80.2 -14.7, 80.5 -14.3, 80.7 -14 M79.8 -15.1 C80.1 -14.8, 80.4 -14.4, 80.7 -14 M80.7 -14 C81 -13.7, 81.2 -13.4, 81.6 -12.9 M80.7 -14 C81 -13.6, 81.3 -13.2, 81.6 -12.9 M81.6 -12.9 C81.8 -12.6, 81.9 -12.3, 82.4 -11.7 M81.6 -12.9 C81.8 -12.5, 82 -12.1, 82.4 -11.7 M82.4 -11.7 C82.5 -11.4, 82.7 -11.1, 83.1 -10.4 M82.4 -11.7 C82.5 -11.4, 82.7 -11.1, 83.1 -10.4 M83.1 -10.4 C83.3 -9.9, 83.5 -9.5, 83.7 -9.1 M83.1 -10.4 C83.2 -10.1, 83.4 -9.7, 83.7 -9.1 M83.7 -9.1 C83.8 -8.8, 83.9 -8.5, 84.2 -7.8 M83.7 -9.1 C83.9 -8.7, 84.1 -8.2, 84.2 -7.8 M84.2 -7.8 C84.4 -7.4, 84.5 -7.1, 84.7 -6.4 M84.2 -7.8 C84.4 -7.3, 84.5 -6.9, 84.7 -6.4 M84.7 -6.4 C84.8 -5.9, 85 -5.4, 85.1 -5 M84.7 -6.4 C84.8 -6, 84.9 -5.7, 85.1 -5 M85.1 -5 C85.1 -4.7, 85.2 -4.3, 85.3 -3.6 M85.1 -5 C85.1 -4.6, 85.2 -4.2, 85.3 -3.6 M85.3 -3.6 C85.4 -3.2, 85.4 -2.8, 85.5 -2.2 M85.3 -3.6 C85.4 -3.3, 85.4 -2.9, 85.5 -2.2 M85.5 -2.2 C85.5 -1.7, 85.6 -1.3, 85.6 -0.7 M85.5 -2.2 C85.5 -1.7, 85.6 -1.3, 85.6 -0.7 M85.6 -0.7 C85.6 -0.4, 85.6 -0.1, 85.6 0.7 M85.6 -0.7 C85.6 -0.3, 85.6 0.1, 85.6 0.7 M85.6 0.7 C85.6 1, 85.6 1.3, 85.5 2.2 M85.6 0.7 C85.6 1.1, 85.6 1.5, 85.5 2.2 M85.5 2.2 C85.5 2.5, 85.4 2.8, 85.3 3.6 M85.5 2.2 C85.5 2.7, 85.4 3.2, 85.3 3.6 M85.3 3.6 C85.3 4, 85.2 4.4, 85.1 5 M85.3 3.6 C85.2 4.1, 85.1 4.6, 85.1 5 M85.1 5 C84.9 5.5, 84.8 5.9, 84.7 6.4 M85.1 5 C84.9 5.5, 84.8 6.1, 84.7 6.4 M84.7 6.4 C84.6 6.7, 84.5 7.1, 84.2 7.8 M84.7 6.4 C84.5 6.9, 84.4 7.4, 84.2 7.8 M84.2 7.8 C84.1 8.1, 84 8.5, 83.7 9.1 M84.2 7.8 C84.1 8.2, 83.9 8.6, 83.7 9.1 M83.7 9.1 C83.6 9.4, 83.4 9.7, 83.1 10.4 M83.7 9.1 C83.5 9.4, 83.4 9.7, 83.1 10.4 M83.1 10.4 C82.8 10.8, 82.6 11.3, 82.4 11.7 M83.1 10.4 C82.9 10.7, 82.8 10.9, 82.4 11.7 M82.4 11.7 C82.2 11.9, 82 12.2, 81.6 12.9 M82.4 11.7 C82.1 12.1, 81.8 12.5, 81.6 12.9 M81.6 12.9 C81.4 13.1, 81.2 13.4, 80.7 14 M81.6 12.9 C81.4 13.1, 81.2 13.4, 80.7 14 M80.7 14 C80.4 14.4, 80 14.8, 79.8 15.1 M80.7 14 C80.5 14.3, 80.2 14.6, 79.8 15.1 M79.8 15.1 C79.5 15.4, 79.2 15.7, 78.8 16.2 M79.8 15.1 C79.5 15.4, 79.2 15.7, 78.8 16.2 M78.8 16.2 C78.5 16.4, 78.2 16.7, 77.7 17.1 M78.8 16.2 C78.5 16.4, 78.2 16.7, 77.7 17.1 M77.7 17.1 C77.3 17.5, 76.9 17.8, 76.6 18 M77.7 17.1 C77.4 17.4, 77.1 17.6, 76.6 18 M76.6 18 C76.2 18.3, 75.8 18.6, 75.4 18.9 M76.6 18 C76.2 18.3, 75.8 18.6, 75.4 18.9 M75.4 18.9 C75 19.1, 74.6 19.3, 74.2 19.6 M75.4 18.9 C75 19.1, 74.6 19.4, 74.2 19.6 M74.2 19.6 C73.8 19.8, 73.5 19.9, 72.9 20.3 M74.2 19.6 C73.7 19.8, 73.3 20.1, 72.9 20.3 M72.9 20.3 C72.6 20.4, 72.3 20.5, 71.6 20.9 M72.9 20.3 C72.6 20.4, 72.3 20.5, 71.6 20.9 M71.6 20.9 C71.3 21, 71 21.1, 70.2 21.4 M71.6 20.9 C71.3 21, 71 21.1, 70.2 21.4 M70.2 21.4 C69.9 21.4, 69.6 21.5, 68.8 21.8 M70.2 21.4 C69.7 21.5, 69.3 21.6, 68.8 21.8 M68.8 21.8 C68.4 21.9, 68 21.9, 67.4 22.1 M68.8 21.8 C68.4 21.9, 67.9 22, 67.4 22.1 M67.4 22.1 C67.1 22.1, 66.7 22.2, 66 22.3 M67.4 22.1 C67 22.1, 66.7 22.2, 66 22.3 M66 22.3 C65.5 22.4, 65.1 22.4, 64.6 22.5 M66 22.3 C65.4 22.4, 64.9 22.4, 64.6 22.5 M64.6 22.5 C64.1 22.5, 63.5 22.5, 63.1 22.5 M64.6 22.5 C64.1 22.5, 63.7 22.5, 63.1 22.5 M63.1 22.5 C63.1 22.5, 63.1 22.5, 63.1 22.5 M63.1 22.5 C63.1 22.5, 63.1 22.5, 63.1 22.5 M63.1 22.5 C31.2 22.5, -0.7 22.5, -63.1 22.5 M63.1 22.5 C20.6 22.5, -21.8 22.5, -63.1 22.5 M-63.1 22.5 C-63.7 22.5, -64.2 22.5, -64.6 22.5 M-63.1 22.5 C-63.6 22.5, -64 22.5, -64.6 22.5 M-64.6 22.5 C-65.1 22.4, -65.6 22.4, -66 22.3 M-64.6 22.5 C-65 22.4, -65.5 22.4, -66 22.3 M-66 22.3 C-66.5 22.2, -67 22.1, -67.4 22.1 M-66 22.3 C-66.5 22.2, -67.1 22.1, -67.4 22.1 M-67.4 22.1 C-67.9 22, -68.4 21.9, -68.8 21.8 M-67.4 22.1 C-67.9 22, -68.3 21.9, -68.8 21.8 M-68.8 21.8 C-69.2 21.6, -69.6 21.5, -70.2 21.4 M-68.8 21.8 C-69.2 21.7, -69.5 21.6, -70.2 21.4 M-70.2 21.4 C-70.7 21.2, -71.2 21, -71.6 20.9 M-70.2 21.4 C-70.5 21.3, -70.8 21.1, -71.6 20.9 M-71.6 20.9 C-71.9 20.7, -72.3 20.5, -72.9 20.3 M-71.6 20.9 C-72 20.7, -72.5 20.4, -72.9 20.3 M-72.9 20.3 C-73.4 20, -73.8 19.8, -74.2 19.6 M-72.9 20.3 C-73.2 20.1, -73.6 19.9, -74.2 19.6 M-74.2 19.6 C-74.5 19.4, -74.8 19.2, -75.4 18.9 M-74.2 19.6 C-74.5 19.4, -74.8 19.2, -75.4 18.9 M-75.4 18.9 C-75.9 18.5, -76.3 18.2, -76.6 18 M-75.4 18.9 C-75.8 18.6, -76.1 18.4, -76.6 18 M-76.6 18 C-76.9 17.8, -77.2 17.5, -77.7 17.1 M-76.6 18 C-76.8 17.8, -77.1 17.6, -77.7 17.1 M-77.7 17.1 C-78.1 16.8, -78.5 16.4, -78.8 16.2 M-77.7 17.1 C-78 16.9, -78.2 16.7, -78.8 16.2 M-78.8 16.2 C-79.1 15.9, -79.4 15.6, -79.8 15.1 M-78.8 16.2 C-79.1 15.8, -79.4 15.5, -79.8 15.1 M-79.8 15.1 C-80 14.9, -80.2 14.6, -80.7 14 M-79.8 15.1 C-80 14.8, -80.3 14.5, -80.7 14 M-80.7 14 C-81 13.6, -81.3 13.2, -81.6 12.9 M-80.7 14 C-81 13.6, -81.3 13.2, -81.6 12.9 M-81.6 12.9 C-81.8 12.5, -82 12.2, -82.4 11.7 M-81.6 12.9 C-81.8 12.5, -82.1 12.1, -82.4 11.7 M-82.4 11.7 C-82.6 11.2, -82.8 10.8, -83.1 10.4 M-82.4 11.7 C-82.5 11.4, -82.7 11.2, -83.1 10.4 M-83.1 10.4 C-83.3 9.9, -83.5 9.4, -83.7 9.1 M-83.1 10.4 C-83.2 10.1, -83.3 9.8, -83.7 9.1 M-83.7 9.1 C-83.9 8.6, -84.1 8.1, -84.2 7.8 M-83.7 9.1 C-83.9 8.6, -84.1 8.1, -84.2 7.8 M-84.2 7.8 C-84.4 7.3, -84.6 6.8, -84.7 6.4 M-84.2 7.8 C-84.4 7.4, -84.5 7.1, -84.7 6.4 M-84.7 6.4 C-84.8 6, -84.9 5.7, -85.1 5 M-84.7 6.4 C-84.8 6.1, -84.8 5.8, -85.1 5 M-85.1 5 C-85.1 4.6, -85.2 4.1, -85.3 3.6 M-85.1 5 C-85.1 4.7, -85.2 4.4, -85.3 3.6 M-85.3 3.6 C-85.4 3, -85.5 2.5, -85.5 2.2 M-85.3 3.6 C-85.4 3.2, -85.4 2.8, -85.5 2.2 M-85.5 2.2 C-85.6 1.6, -85.6 1, -85.6 0.7 M-85.5 2.2 C-85.6 1.6, -85.6 1.1, -85.6 0.7 M-85.6 0.7 C-85.6 0.4, -85.6 0.1, -85.6 -0.7 M-85.6 0.7 C-85.6 0.2, -85.6 -0.2, -85.6 -0.7 M-85.6 -0.7 C-85.6 -1.2, -85.6 -1.7, -85.5 -2.2 M-85.6 -0.7 C-85.6 -1.1, -85.6 -1.4, -85.5 -2.2 M-85.5 -2.2 C-85.5 -2.7, -85.4 -3.2, -85.3 -3.6 M-85.5 -2.2 C-85.5 -2.6, -85.4 -3.1, -85.3 -3.6 M-85.3 -3.6 C-85.2 -4.1, -85.1 -4.7, -85.1 -5 M-85.3 -3.6 C-85.3 -4, -85.2 -4.4, -85.1 -5 M-85.1 -5 C-85 -5.3, -84.9 -5.6, -84.7 -6.4 M-85.1 -5 C-84.9 -5.5, -84.8 -6.1, -84.7 -6.4 M-84.7 -6.4 C-84.6 -6.7, -84.5 -7.1, -84.2 -7.8 M-84.7 -6.4 C-84.6 -6.8, -84.4 -7.2, -84.2 -7.8 M-84.2 -7.8 C-84.1 -8.2, -83.9 -8.6, -83.7 -9.1 M-84.2 -7.8 C-84 -8.3, -83.8 -8.8, -83.7 -9.1 M-83.7 -9.1 C-83.5 -9.6, -83.2 -10.1, -83.1 -10.4 M-83.7 -9.1 C-83.5 -9.6, -83.2 -10.1, -83.1 -10.4 M-83.1 -10.4 C-82.8 -10.9, -82.6 -11.3, -82.4 -11.7 M-83.1 -10.4 C-82.8 -10.9, -82.5 -11.3, -82.4 -11.7 M-82.4 -11.7 C-82.2 -11.9, -82 -12.2, -81.6 -12.9 M-82.4 -11.7 C-82.1 -12.1, -81.8 -12.6, -81.6 -12.9 M-81.6 -12.9 C-81.3 -13.2, -81.1 -13.5, -80.7 -14 M-81.6 -12.9 C-81.3 -13.2, -81 -13.6, -80.7 -14 M-80.7 -14 C-80.4 -14.5, -80 -14.9, -79.8 -15.1 M-80.7 -14 C-80.4 -14.4, -80.1 -14.8, -79.8 -15.1 M-79.8 -15.1 C-79.5 -15.4, -79.3 -15.6, -78.8 -16.2 M-79.8 -15.1 C-79.5 -15.4, -79.2 -15.7, -78.8 -16.2 M-78.8 -16.2 C-78.4 -16.5, -77.9 -16.9, -77.7 -17.1 M-78.8 -16.2 C-78.6 -16.4, -78.3 -16.6, -77.7 -17.1 M-77.7 -17.1 C-77.3 -17.5, -76.9 -17.8, -76.6 -18 M-77.7 -17.1 C-77.3 -17.4, -76.9 -17.8, -76.6 -18 M-76.6 -18 C-76.3 -18.2, -76 -18.4, -75.4 -18.9 M-76.6 -18 C-76.3 -18.2, -76 -18.5, -75.4 -18.9 M-75.4 -18.9 C-75.1 -19, -74.8 -19.2, -74.2 -19.6 M-75.4 -18.9 C-75 -19.1, -74.5 -19.4, -74.2 -19.6 M-74.2 -19.6 C-73.8 -19.8, -73.5 -19.9, -72.9 -20.3 M-74.2 -19.6 C-73.9 -19.8, -73.6 -19.9, -72.9 -20.3 M-72.9 -20.3 C-72.4 -20.5, -72 -20.7, -71.6 -20.9 M-72.9 -20.3 C-72.6 -20.4, -72.3 -20.5, -71.6 -20.9 M-71.6 -20.9 C-71 -21.1, -70.5 -21.2, -70.2 -21.4 M-71.6 -20.9 C-71.3 -21, -71 -21.1, -70.2 -21.4 M-70.2 -21.4 C-69.7 -21.5, -69.2 -21.6, -68.8 -21.8 M-70.2 -21.4 C-69.8 -21.5, -69.3 -21.6, -68.8 -21.8 M-68.8 -21.8 C-68.4 -21.9, -68 -22, -67.4 -22.1 M-68.8 -21.8 C-68.5 -21.8, -68.3 -21.9, -67.4 -22.1 M-67.4 -22.1 C-67 -22.2, -66.6 -22.2, -66 -22.3 M-67.4 -22.1 C-67.1 -22.1, -66.8 -22.2, -66 -22.3 M-66 -22.3 C-65.6 -22.4, -65.3 -22.4, -64.6 -22.5 M-66 -22.3 C-65.7 -22.3, -65.4 -22.4, -64.6 -22.5 M-64.6 -22.5 C-64.1 -22.5, -63.6 -22.5, -63.1 -22.5 M-64.6 -22.5 C-64 -22.5, -63.4 -22.5, -63.1 -22.5 M-63.1 -22.5 C-63.1 -22.5, -63.1 -22.5, -63.1 -22.5 M-63.1 -22.5 C-63.1 -22.5, -63.1 -22.5, -63.1 -22.5" stroke="#292725" stroke-width="1.3" fill="none" stroke-dasharray="0 0" style=""/></g><g class="label" style="" transform="translate(-60, -10.5)"><rect/><foreignObject width="120" height="21"><div xmlns="http://www.w3.org/1999/xhtml" style="display: table; white-space: nowrap; line-height: 1.5; max-width: 120px; text-align: center; width: 120px;"><span class="nodeLabel"><p>merge to main</p></span></div></foreignObject></g></g></g></g></g><defs><filter id="my-svg-drop-shadow" height="130%" width="130%"><feDropShadow dx="4" dy="4" stdDeviation="0" flood-opacity="0.06" flood-color="#000000"/></filter></defs><defs><filter id="my-svg-drop-shadow-small" height="150%" width="150%"><feDropShadow dx="2" dy="2" stdDeviation="0" flood-opacity="0.06" flood-color="#000000"/></filter></defs><linearGradient id="my-svg-gradient" gradientUnits="objectBoundingBox" x1="0%" y1="0%" x2="100%" y2="0%"><stop offset="0%" stop-color="#292725" stop-opacity="1"/><stop offset="100%" stop-color="#696866" stop-opacity="1"/></linearGradient></svg>