<svg id="my-svg" width="100%" xmlns="http://www.w3.org/2000/svg" xmlns:xlink="http://www.w3.org/1999/xlink" class="flowchart" style="max-width: 759.286px; background-color: transparent;" viewBox="4 4 759.3 230" role="graphics-document document" aria-roledescription="flowchart-v2"><style>#my-svg{font-family:Gmarket Sans,Gmarket Sans TTF,-apple-system,Apple SD Gothic Neo,sans-serif;font-size:14px;fill:#292725;}@keyframes edge-animation-frame{from{stroke-dashoffset:0;}}@keyframes dash{to{stroke-dashoffset:0;}}#my-svg .edge-animation-slow{stroke-dasharray:9,5!important;stroke-dashoffset:900;animation:dash 50s linear infinite;stroke-linecap:round;}#my-svg .edge-animation-fast{stroke-dasharray:9,5!important;stroke-dashoffset:900;animation:dash 20s linear infinite;stroke-linecap:round;}#my-svg .error-icon{fill:#FFFFFF;}#my-svg .error-text{fill:#292725;stroke:#292725;}#my-svg .edge-thickness-normal{stroke-width:1px;}#my-svg .edge-thickness-thick{stroke-width:3.5px;}#my-svg .edge-pattern-solid{stroke-dasharray:0;}#my-svg .edge-thickness-invisible{stroke-width:0;fill:none;}#my-svg .edge-pattern-dashed{stroke-dasharray:3;}#my-svg .edge-pattern-dotted{stroke-dasharray:2;}#my-svg .marker{fill:#696866;stroke:#696866;}#my-svg .marker.cross{stroke:#696866;}#my-svg svg{font-family:Gmarket Sans,Gmarket Sans TTF,-apple-system,Apple SD Gothic Neo,sans-serif;font-size:14px;}#my-svg p{margin:0;}#my-svg .label{font-family:Gmarket Sans,Gmarket Sans TTF,-apple-system,Apple SD Gothic Neo,sans-serif;color:#292725;}#my-svg .cluster-label text{fill:#292725;}#my-svg .cluster-label span{color:#292725;}#my-svg .cluster-label span p{background-color:transparent;}#my-svg .label text,#my-svg span{fill:#292725;color:#292725;}#my-svg .node rect,#my-svg .node circle,#my-svg .node ellipse,#my-svg .node polygon,#my-svg .node path{fill:#FFFFFF;stroke:#292725;stroke-width:1px;}#my-svg .rough-node .label text,#my-svg .node .label text,#my-svg .image-shape .label,#my-svg .icon-shape .label{text-anchor:middle;}#my-svg .node .katex path{fill:#000;stroke:#000;stroke-width:1px;}#my-svg .rough-node .label,#my-svg .node .label,#my-svg .image-shape .label,#my-svg .icon-shape .label{text-align:center;}#my-svg .node.clickable{cursor:pointer;}#my-svg .root .anchor path{fill:#696866!important;stroke-width:0;stroke:#696866;}#my-svg .arrowheadPath{fill:rgba(255, 255, 255, 0);}#my-svg .edgePaths .path{stroke:#696866;stroke-width:1px;}#my-svg .flowchart-link{stroke:#696866;fill:none;}#my-svg .edgeLabel{background-color:#FFFFFF;text-align:center;}#my-svg .edgeLabel p{background-color:#FFFFFF;}#my-svg .edgeLabel rect{opacity:0.5;background-color:#FFFFFF;fill:#FFFFFF;}#my-svg .labelBkg{background-color:rgba(255, 255, 255, 0.5);}#my-svg .cluster rect{fill:#FFFFFF;stroke:#DFDFDE;stroke-width:1px;}#my-svg .cluster text{fill:#292725;}#my-svg .cluster span{color:#292725;}#my-svg .node .collapsed-indicator{fill:#DFDFDE;stroke:none;opacity:0.6;}#my-svg .node .collapsed-separator{stroke:#DFDFDE;stroke-width:0.75px;}#my-svg div.mermaidTooltip{position:absolute;text-align:center;max-width:200px;padding:2px;font-family:Gmarket Sans,Gmarket Sans TTF,-apple-system,Apple SD Gothic Neo,sans-serif;font-size:12px;background:#FFFFFF;border:1px solid #DFDFDE;border-radius:2px;pointer-events:none;z-index:100;}#my-svg .flowchartTitleText{text-anchor:middle;font-size:18px;fill:#292725;}#my-svg rect.text{fill:none;stroke-width:0;}#my-svg .icon-shape,#my-svg .image-shape{background-color:#FFFFFF;text-align:center;}#my-svg .icon-shape p,#my-svg .image-shape p{background-color:#FFFFFF;padding:2px;}#my-svg .icon-shape .label rect,#my-svg .image-shape .label rect{opacity:0.5;background-color:#FFFFFF;fill:#FFFFFF;}#my-svg .label-icon{display:inline-block;height:1em;overflow:visible;vertical-align:-0.125em;}#my-svg .node .label-icon path{fill:currentColor;stroke:revert;stroke-width:revert;}#my-svg .node .neo-node{stroke:#292725;}#my-svg [data-look="neo"].node rect,#my-svg [data-look="neo"].cluster rect,#my-svg [data-look="neo"].node polygon{stroke:url(#my-svg-gradient);filter:drop-shadow( 1px 2px 2px rgba(185,185,185,1));}#my-svg [data-look="neo"].swimlane.cluster rect{filter:none;}#my-svg [data-look="neo"].node path{stroke:url(#my-svg-gradient);stroke-width:1px;}#my-svg [data-look="neo"].node .outer-path{filter:drop-shadow( 1px 2px 2px rgba(185,185,185,1));}#my-svg [data-look="neo"].node .neo-line path{stroke:#292725;filter:none;}#my-svg [data-look="neo"].node circle{stroke:url(#my-svg-gradient);filter:drop-shadow( 1px 2px 2px rgba(185,185,185,1));}#my-svg [data-look="neo"].node circle .state-start{fill:#000000;}#my-svg [data-look="neo"].icon-shape .icon{fill:url(#my-svg-gradient);filter:drop-shadow( 1px 2px 2px rgba(185,185,185,1));}#my-svg [data-look="neo"].icon-shape .icon-neo path{stroke:url(#my-svg-gradient);filter:drop-shadow( 1px 2px 2px rgba(185,185,185,1));}#my-svg :root{--mermaid-font-family:"trebuchet ms",verdana,arial,sans-serif;}</style><g><marker id="my-svg_flowchart-v2-pointEnd" class="marker flowchart-v2" viewBox="0 0 10 10" refX="5" refY="5" markerUnits="userSpaceOnUse" markerWidth="8" markerHeight="8" orient="auto"><path d="M 0 0 L 10 5 L 0 10 z" class="arrowMarkerPath" style="stroke-width: 1; stroke-dasharray: 1, 0;"/></marker><marker id="my-svg_flowchart-v2-pointStart" class="marker flowchart-v2" viewBox="0 0 10 10" refX="4.5" refY="5" markerUnits="userSpaceOnUse" markerWidth="8" markerHeight="8" orient="auto"><path d="M 0 5 L 10 10 L 10 0 z" class="arrowMarkerPath" style="stroke-width: 1; stroke-dasharray: 1, 0;"/></marker><marker id="my-svg_flowchart-v2-pointEnd-margin" class="marker flowchart-v2" viewBox="0 0 11.5 14" refX="11.5" refY="7" markerUnits="userSpaceOnUse" markerWidth="10.5" markerHeight="14" orient="auto"><path d="M 0 0 L 11.5 7 L 0 14 z" class="arrowMarkerPath" style="stroke-width: 0; stroke-dasharray: 1, 0;"/></marker><marker id="my-svg_flowchart-v2-pointStart-margin" class="marker flowchart-v2" viewBox="0 0 11.5 14" refX="1" refY="7" markerUnits="userSpaceOnUse" markerWidth="11.5" markerHeight="14" orient="auto"><polygon points="0,7 11.5,14 11.5,0" class="arrowMarkerPath" style="stroke-width: 0; stroke-dasharray: 1, 0;"/></marker><marker id="my-svg_flowchart-v2-circleEnd" class="marker flowchart-v2" viewBox="0 0 10 10" refX="11" refY="5" markerUnits="userSpaceOnUse" markerWidth="11" markerHeight="11" orient="auto"><circle cx="5" cy="5" r="5" class="arrowMarkerPath" style="stroke-width: 1; stroke-dasharray: 1, 0;"/></marker><marker id="my-svg_flowchart-v2-circleStart" class="marker flowchart-v2" viewBox="0 0 10 10" refX="-1" refY="5" markerUnits="userSpaceOnUse" markerWidth="11" markerHeight="11" orient="auto"><circle cx="5" cy="5" r="5" class="arrowMarkerPath" style="stroke-width: 1; stroke-dasharray: 1, 0;"/></marker><marker id="my-svg_flowchart-v2-circleEnd-margin" class="marker flowchart-v2" viewBox="0 0 10 10" refY="5" refX="12.25" markerUnits="userSpaceOnUse" markerWidth="14" markerHeight="14" orient="auto"><circle cx="5" cy="5" r="5" class="arrowMarkerPath" style="stroke-width: 0; stroke-dasharray: 1, 0;"/></marker><marker id="my-svg_flowchart-v2-circleStart-margin" class="marker flowchart-v2" viewBox="0 0 10 10" refX="-2" refY="5" markerUnits="userSpaceOnUse" markerWidth="14" markerHeight="14" orient="auto"><circle cx="5" cy="5" r="5" class="arrowMarkerPath" style="stroke-width: 0; stroke-dasharray: 1, 0;"/></marker><marker id="my-svg_flowchart-v2-crossEnd" class="marker cross flowchart-v2" viewBox="0 0 11 11" refX="12" refY="5.2" markerUnits="userSpaceOnUse" markerWidth="11" markerHeight="11" orient="auto"><path d="M 1,1 l 9,9 M 10,1 l -9,9" class="arrowMarkerPath" style="stroke-width: 2; stroke-dasharray: 1, 0;"/></marker><marker id="my-svg_flowchart-v2-crossStart" class="marker cross flowchart-v2" viewBox="0 0 11 11" refX="-1" refY="5.2" markerUnits="userSpaceOnUse" markerWidth="11" markerHeight="11" orient="auto"><path d="M 1,1 l 9,9 M 10,1 l -9,9" class="arrowMarkerPath" style="stroke-width: 2; stroke-dasharray: 1, 0;"/></marker><marker id="my-svg_flowchart-v2-crossEnd-margin" class="marker cross flowchart-v2" viewBox="0 0 15 15" refX="17.7" refY="7.5" markerUnits="userSpaceOnUse" markerWidth="12" markerHeight="12" orient="auto"><path d="M 1,1 L 14,14 M 1,14 L 14,1" class="arrowMarkerPath" style="stroke-width: 2.5;"/></marker><marker id="my-svg_flowchart-v2-crossStart-margin" class="marker cross flowchart-v2" viewBox="0 0 15 15" refX="-3.5" refY="7.5" markerUnits="userSpaceOnUse" markerWidth="12" markerHeight="12" orient="auto"><path d="M 1,1 L 14,14 M 1,14 L 14,1" class="arrowMarkerPath" style="stroke-width: 2.5; stroke-dasharray: 1, 0;"/></marker><g class="root"><g class="clusters"/><g class="edges edgePaths"><path d="M164,119L200,119" id="my-svg-L_P_S_0" class="edge-thickness-normal edge-pattern-solid edge-thickness-normal edge-pattern-solid flowchart-link" style="stroke-dasharray: 0 0 32 4; stroke-dashoffset: 0;;" data-edge="true" data-et="edge" data-id="L_P_S_0" data-points="W3sieCI6MTY0LCJ5IjoxMTguOTk5OTk5OTk5OTk5OTl9LHsieCI6MjA0LCJ5IjoxMTguOTk5OTk5OTk5OTk5OTl9XQ==" data-look="neo" marker-end="url(#my-svg_flowchart-v2-pointEnd-margin)"/><path d="M384.8,86.8L417,86.8L429.9,86.8Q437,86.8 437,79.8L437,62.6Q437,55.5 444.1,55.5L564.3,55.5" id="my-svg-L_S_I_0" class="edge-thickness-normal edge-pattern-solid edge-thickness-normal edge-pattern-solid flowchart-link" style="stroke-dasharray: 0 0 201.43743896484375 4; stroke-dashoffset: 0;;" data-edge="true" data-et="edge" data-id="L_S_I_0" data-points="W3sieCI6Mzg0LjgzMzIzNzE3MTE3MzEsInkiOjg2LjgzMzMzMzMzMzMzMzMzfSx7IngiOjQxNywieSI6ODYuODMzMzMzMzMzMzMzMzN9LHsieCI6NDM3LCJ5Ijo4Ni44MzMzMzMzMzMzMzMzM30seyJ4Ijo0MzcsInkiOjU1LjV9LHsieCI6NTY4LjI2NTYyNSwieSI6NTUuNX1d" data-look="neo" marker-end="url(#my-svg_flowchart-v2-pointEnd-margin)"/><path d="M384.8,151.2L417,151.2L429.9,151.2Q437,151.2 437,158.2L437,175.4Q437,182.5 444.1,182.5L564.3,182.5" id="my-svg-L_S_Z_0" class="edge-thickness-normal edge-pattern-solid edge-thickness-normal edge-pattern-solid flowchart-link" style="stroke-dasharray: 0 0 201.4374237060547 4; stroke-dashoffset: 0;;" data-edge="true" data-et="edge" data-id="L_S_Z_0" data-points="W3sieCI6Mzg0LjgzMzIzNzE3MTE3MzEsInkiOjE1MS4xNjY2NjY2NjY2NjY2OX0seyJ4Ijo0MTcsInkiOjE1MS4xNjY2NjY2NjY2NjY2OX0seyJ4Ijo0MzcsInkiOjE1MS4xNjY2NjY2NjY2NjY2OX0seyJ4Ijo0MzcsInkiOjE4Mi41fSx7IngiOjU2OC4yNjU2MjUsInkiOjE4Mi41fV0=" data-look="neo" marker-end="url(#my-svg_flowchart-v2-pointEnd-margin)"/></g><g class="edgeLabels"><g class="edgeLabel" transform="translate(492.6, 55)"><g class="label" data-id="L_S_I_0" transform="translate(-13.5, -10.5)"><foreignObject width="26.9" height="21"><div xmlns="http://www.w3.org/1999/xhtml" class="labelBkg" style="display: table-cell; white-space: nowrap; line-height: 1.5; max-width: 200px; text-align: center;"><span class="edgeLabel"><p>필요</p></span></div></foreignObject></g></g><g class="edgeLabel" transform="translate(492.6, 182)"><g class="label" data-id="L_S_Z_0" transform="translate(-35.6, -10.5)"><foreignObject width="71.3" height="21"><div xmlns="http://www.w3.org/1999/xhtml" class="labelBkg" style="display: table-cell; white-space: nowrap; line-height: 1.5; max-width: 200px; text-align: center;"><span class="edgeLabel"><p>이미 처리됨</p></span></div></foreignObject></g></g></g><g class="nodes"><g class="node default" id="my-svg-flowchart-P-0" data-look="neo" transform="translate(88, 119)"><rect class="basic label-container" style="" x="-76" y="-22.5" width="152" height="45"/><g class="label" style="" transform="translate(-60, -10.5)"><rect/><foreignObject width="120" height="21"><div xmlns="http://www.w3.org/1999/xhtml" style="display: table; white-space: nowrap; line-height: 1.5; max-width: 120px; text-align: center; width: 120px;"><span class="nodeLabel"><p>계획한 작업</p></span></div></foreignObject></g></g><g class="node default" id="my-svg-flowchart-S-1" data-look="neo" transform="translate(310.5, 119)"><polygon points="106.5,0 213,-106.5 106.5,-213 0,-106.5" class="label-container" transform="translate(-106, 106.5)"/><g class="label" style="" transform="translate(-60, -31.5)"><rect/><foreignObject width="120" height="63"><div xmlns="http://www.w3.org/1999/xhtml" style="display: table; white-space: nowrap; line-height: 1.5; max-width: 120px; text-align: center; width: 120px;"><span class="nodeLabel"><p>분석 에이전트에게<br />사전 검토:<br />정말 필요한가?</p></span></div></foreignObject></g></g><g class="node default" id="my-svg-flowchart-I-3" data-look="neo" transform="translate(644.3, 55.5)"><rect class="basic label-container" style="" x="-76" y="-43.5" width="152" height="87"/><g class="label" style="" transform="translate(-60, -31.5)"><rect/><foreignObject width="120" height="63"><div xmlns="http://www.w3.org/1999/xhtml" style="display: table; white-space: break-spaces; line-height: 1.5; max-width: 120px; text-align: center; width: 120px;"><span class="nodeLabel"><p>구현<br />Coverage 70% 달성</p></span></div></foreignObject></g></g><g class="node default" id="my-svg-flowchart-Z-5" data-look="neo" transform="translate(661.8, 182.5)"><g class="basic label-container outer-path"><path d="M-50 -43.5 C-24.4 -43.5, 1.3 -43.5, 50 -43.5 C50 -43.5, 50 -43.5, 50 -43.5 C50.9 -43.5, 51.8 -43.4, 52.8 -43.4 C53.8 -43.3, 54.7 -43.2, 55.6 -43.1 C56.5 -43, 57.3 -42.9, 58.3 -42.7 C59 -42.6, 59.6 -42.4, 61.1 -42.1 C62 -41.8, 62.9 -41.5, 63.7 -41.3 C64.4 -41, 65.1 -40.8, 66.4 -40.3 C67.2 -39.9, 68.1 -39.5, 68.9 -39.2 C69.8 -38.8, 70.6 -38.3, 71.4 -37.9 C72.2 -37.4, 73.1 -36.9, 73.8 -36.5 C74.3 -36.1, 74.9 -35.7, 76.1 -34.9 C76.5 -34.5, 76.9 -34.2, 78.2 -33.1 C78.8 -32.6, 79.4 -32, 80.3 -31.2 C80.8 -30.7, 81.3 -30.2, 82.2 -29.2 C82.7 -28.7, 83.2 -28.1, 84 -27.1 C84.4 -26.6, 84.8 -26, 85.7 -24.9 C86.2 -24.2, 86.6 -23.5, 87.2 -22.6 C87.6 -21.9, 88 -21.2, 88.6 -20.1 C88.9 -19.5, 89.2 -18.9, 89.8 -17.6 C90.2 -16.7, 90.5 -15.9, 90.9 -15 C91.1 -14.4, 91.3 -13.7, 91.7 -12.4 C91.9 -11.6, 92.1 -10.9, 92.4 -9.7 C92.6 -8.9, 92.8 -8.1, 93 -6.9 C93.1 -5.9, 93.2 -4.8, 93.3 -4.2 C93.4 -3.6, 93.4 -3, 93.5 -1.4 C93.5 -0.6, 93.5 0.1, 93.5 1.4 C93.5 2.3, 93.4 3.3, 93.3 4.2 C93.2 5.1, 93.1 6.1, 93 6.9 C92.9 7.6, 92.7 8.2, 92.4 9.7 C92.2 10.4, 92.1 11.2, 91.7 12.4 C91.4 13.4, 91.1 14.4, 90.9 15 C90.5 15.8, 90.2 16.6, 89.8 17.6 C89.6 18.1, 89.3 18.6, 88.6 20.1 C88.1 21, 87.6 21.9, 87.2 22.6 C86.9 23.1, 86.5 23.7, 85.7 24.9 C85.4 25.3, 85 25.8, 84 27.1 C83.5 27.7, 83.1 28.3, 82.2 29.2 C81.7 29.8, 81.1 30.4, 80.3 31.2 C79.7 31.8, 79.1 32.3, 78.2 33.1 C77.7 33.5, 77.2 33.9, 76.1 34.9 C75.3 35.4, 74.6 35.9, 73.8 36.5 C72.9 37, 72.1 37.5, 71.4 37.9 C70.6 38.3, 69.8 38.7, 68.9 39.2 C68.2 39.5, 67.6 39.8, 66.4 40.3 C65.4 40.7, 64.5 41, 63.7 41.3 C62.7 41.6, 61.6 41.9, 61.1 42.1 C60.1 42.3, 59.1 42.5, 58.3 42.7 C57.6 42.8, 56.8 42.9, 55.6 43.1 C54.7 43.2, 53.8 43.3, 52.8 43.4 C52.2 43.4, 51.6 43.5, 50 43.5 C50 43.5, 50 43.5, 50 43.5 C15 43.5, -20 43.5, -50 43.5 C-51.1 43.5, -52.2 43.4, -52.8 43.4 C-53.7 43.3, -54.6 43.2, -55.6 43.1 C-56.6 43, -57.5 42.8, -58.3 42.7 C-59.4 42.5, -60.5 42.2, -61.1 42.1 C-61.6 41.9, -62.1 41.8, -63.7 41.3 C-64.6 41, -65.4 40.7, -66.4 40.3 C-67.2 39.9, -68.1 39.5, -68.9 39.2 C-69.6 38.8, -70.3 38.4, -71.4 37.9 C-71.9 37.6, -72.4 37.3, -73.8 36.5 C-74.5 35.9, -75.3 35.4, -76.1 34.9 C-76.7 34.3, -77.4 33.8, -78.2 33.1 C-78.6 32.7, -79.1 32.4, -80.3 31.2 C-80.8 30.7, -81.4 30.1, -82.2 29.2 C-82.9 28.5, -83.6 27.7, -84 27.1 C-84.7 26.2, -85.3 25.4, -85.7 24.9 C-86 24.4, -86.4 23.9, -87.2 22.6 C-87.6 21.9, -87.9 21.3, -88.6 20.1 C-89.1 19.1, -89.5 18.1, -89.8 17.6 C-90.2 16.6, -90.6 15.5, -90.9 15 C-91.1 14.3, -91.4 13.5, -91.7 12.4 C-91.9 11.7, -92.1 11, -92.4 9.7 C-92.6 8.9, -92.7 8.2, -93 6.9 C-93.1 5.9, -93.3 4.8, -93.3 4.2 C-93.4 3.1, -93.5 2, -93.5 1.4 C-93.5 0.6, -93.5 -0.3, -93.5 -1.4 C-93.5 -2.2, -93.4 -3, -93.3 -4.2 C-93.2 -5.1, -93.1 -6, -93 -6.9 C-92.8 -7.9, -92.6 -8.9, -92.4 -9.7 C-92.3 -10.3, -92.1 -11, -91.7 -12.4 C-91.5 -13, -91.4 -13.5, -90.9 -15 C-90.5 -15.9, -90.2 -16.7, -89.8 -17.6 C-89.4 -18.4, -89 -19.3, -88.6 -20.1 C-88.3 -20.7, -87.9 -21.3, -87.2 -22.6 C-86.9 -23.1, -86.5 -23.6, -85.7 -24.9 C-85.1 -25.7, -84.5 -26.5, -84 -27.1 C-83.6 -27.7, -83.1 -28.3, -82.2 -29.2 C-81.5 -30, -80.9 -30.7, -80.3 -31.2 C-79.6 -31.9, -78.9 -32.5, -78.2 -33.1 C-77.7 -33.5, -77.2 -34, -76.1 -34.9 C-75.6 -35.2, -75.1 -35.5, -73.8 -36.5 C-72.9 -37, -72 -37.5, -71.4 -37.9 C-70.5 -38.4, -69.6 -38.8, -68.9 -39.2 C-68.2 -39.5, -67.6 -39.8, -66.4 -40.3 C-65.4 -40.7, -64.5 -41, -63.7 -41.3 C-63.1 -41.5, -62.4 -41.7, -61.1 -42.1 C-60.2 -42.3, -59.3 -42.5, -58.3 -42.7 C-57.7 -42.8, -57 -42.9, -55.6 -43.1 C-54.7 -43.2, -53.9 -43.3, -52.8 -43.4 C-52.2 -43.4, -51.6 -43.4, -50 -43.5 C-50 -43.5, -50 -43.5, -50 -43.5" stroke="none" stroke-width="0" fill="#FFFFFF" style=""/><path d="M-50 -43.5 C-24.1 -43.5, 1.8 -43.5, 50 -43.5 M-50 -43.5 C-26.6 -43.5, -3.2 -43.5, 50 -43.5 M50 -43.5 C50 -43.5, 50 -43.5, 50 -43.5 M50 -43.5 C50 -43.5, 50 -43.5, 50 -43.5 M50 -43.5 C50.7 -43.5, 51.3 -43.5, 52.8 -43.4 M50 -43.5 C51 -43.5, 52 -43.4, 52.8 -43.4 M52.8 -43.4 C53.8 -43.3, 54.9 -43.2, 55.6 -43.1 M52.8 -43.4 C53.6 -43.3, 54.4 -43.3, 55.6 -43.1 M55.6 -43.1 C56.6 -43, 57.6 -42.8, 58.3 -42.7 M55.6 -43.1 C56.4 -43, 57.2 -42.9, 58.3 -42.7 M58.3 -42.7 C59.3 -42.5, 60.3 -42.3, 61.1 -42.1 M58.3 -42.7 C59.3 -42.5, 60.3 -42.2, 61.1 -42.1 M61.1 -42.1 C61.6 -41.9, 62.2 -41.7, 63.7 -41.3 M61.1 -42.1 C62 -41.8, 62.9 -41.5, 63.7 -41.3 M63.7 -41.3 C64.8 -40.9, 65.8 -40.5, 66.4 -40.3 M63.7 -41.3 C64.3 -41.1, 64.8 -40.9, 66.4 -40.3 M66.4 -40.3 C67.3 -39.9, 68.2 -39.5, 68.9 -39.2 M66.4 -40.3 C67.2 -40, 68 -39.6, 68.9 -39.2 M68.9 -39.2 C69.5 -38.9, 70.1 -38.6, 71.4 -37.9 M68.9 -39.2 C69.5 -38.9, 70 -38.6, 71.4 -37.9 M71.4 -37.9 C72.2 -37.4, 73.1 -36.9, 73.8 -36.5 M71.4 -37.9 C72.3 -37.3, 73.3 -36.8, 73.8 -36.5 M73.8 -36.5 C74.3 -36.1, 74.9 -35.7, 76.1 -34.9 M73.8 -36.5 C74.6 -35.8, 75.5 -35.2, 76.1 -34.9 M76.1 -34.9 C76.7 -34.3, 77.4 -33.8, 78.2 -33.1 M76.1 -34.9 C76.8 -34.3, 77.6 -33.6, 78.2 -33.1 M78.2 -33.1 C79 -32.4, 79.8 -31.7, 80.3 -31.2 M78.2 -33.1 C78.9 -32.6, 79.5 -32, 80.3 -31.2 M80.3 -31.2 C81 -30.5, 81.8 -29.7, 82.2 -29.2 M80.3 -31.2 C80.7 -30.8, 81.1 -30.4, 82.2 -29.2 M82.2 -29.2 C82.9 -28.5, 83.5 -27.8, 84 -27.1 M82.2 -29.2 C82.8 -28.6, 83.4 -27.9, 84 -27.1 M84 -27.1 C84.6 -26.4, 85.1 -25.7, 85.7 -24.9 M84 -27.1 C84.5 -26.5, 84.9 -26, 85.7 -24.9 M85.7 -24.9 C86.2 -24.1, 86.7 -23.4, 87.2 -22.6 M85.7 -24.9 C86.3 -24, 86.8 -23.2, 87.2 -22.6 M87.2 -22.6 C87.8 -21.6, 88.3 -20.6, 88.6 -20.1 M87.2 -22.6 C87.5 -22, 87.8 -21.5, 88.6 -20.1 M88.6 -20.1 C89 -19.3, 89.4 -18.5, 89.8 -17.6 M88.6 -20.1 C88.9 -19.4, 89.3 -18.7, 89.8 -17.6 M89.8 -17.6 C90.1 -16.8, 90.4 -16.1, 90.9 -15 M89.8 -17.6 C90.2 -16.7, 90.5 -15.8, 90.9 -15 M90.9 -15 C91.1 -14.2, 91.4 -13.3, 91.7 -12.4 M90.9 -15 C91.1 -14.3, 91.3 -13.5, 91.7 -12.4 M91.7 -12.4 C92 -11.4, 92.3 -10.3, 92.4 -9.7 M91.7 -12.4 C92 -11.4, 92.3 -10.3, 92.4 -9.7 M92.4 -9.7 C92.7 -8.6, 92.9 -7.5, 93 -6.9 M92.4 -9.7 C92.6 -8.7, 92.8 -7.6, 93 -6.9 M93 -6.9 C93.1 -6.1, 93.2 -5.2, 93.3 -4.2 M93 -6.9 C93.1 -6.4, 93.1 -5.8, 93.3 -4.2 M93.3 -4.2 C93.4 -3.4, 93.4 -2.7, 93.5 -1.4 M93.3 -4.2 C93.4 -3.1, 93.5 -2, 93.5 -1.4 M93.5 -1.4 C93.5 -0.3, 93.5 0.7, 93.5 1.4 M93.5 -1.4 C93.5 -0.5, 93.5 0.4, 93.5 1.4 M93.5 1.4 C93.4 2.4, 93.4 3.4, 93.3 4.2 M93.5 1.4 C93.5 2.1, 93.4 2.8, 93.3 4.2 M93.3 4.2 C93.2 5.1, 93.1 6, 93 6.9 M93.3 4.2 C93.2 4.8, 93.2 5.5, 93 6.9 M93 6.9 C92.9 7.6, 92.7 8.2, 92.4 9.7 M93 6.9 C92.8 7.7, 92.7 8.4, 92.4 9.7 M92.4 9.7 C92.3 10.3, 92.1 10.8, 91.7 12.4 M92.4 9.7 C92.2 10.7, 91.9 11.8, 91.7 12.4 M91.7 12.4 C91.5 13.2, 91.2 13.9, 90.9 15 M91.7 12.4 C91.5 13.1, 91.3 13.8, 90.9 15 M90.9 15 C90.5 15.8, 90.2 16.7, 89.8 17.6 M90.9 15 C90.5 15.9, 90.1 16.8, 89.8 17.6 M89.8 17.6 C89.4 18.5, 89 19.4, 88.6 20.1 M89.8 17.6 C89.5 18.3, 89.2 18.9, 88.6 20.1 M88.6 20.1 C88.3 20.7, 87.9 21.3, 87.2 22.6 M88.6 20.1 C88.3 20.7, 88 21.2, 87.2 22.6 M87.2 22.6 C86.7 23.4, 86.1 24.3, 85.7 24.9 M87.2 22.6 C86.9 23.1, 86.5 23.6, 85.7 24.9 M85.7 24.9 C85.1 25.8, 84.4 26.6, 84 27.1 M85.7 24.9 C85.3 25.5, 84.8 26.1, 84 27.1 M84 27.1 C83.4 27.8, 82.8 28.5, 82.2 29.2 M84 27.1 C83.6 27.6, 83.2 28.1, 82.2 29.2 M82.2 29.2 C81.7 29.8, 81.2 30.3, 80.3 31.2 M82.2 29.2 C81.6 29.9, 80.9 30.6, 80.3 31.2 M80.3 31.2 C79.7 31.8, 79 32.4, 78.2 33.1 M80.3 31.2 C79.8 31.7, 79.4 32.1, 78.2 33.1 M78.2 33.1 C77.4 33.8, 76.6 34.4, 76.1 34.9 M78.2 33.1 C77.6 33.6, 77 34.1, 76.1 34.9 M76.1 34.9 C75.3 35.4, 74.6 35.9, 73.8 36.5 M76.1 34.9 C75.2 35.4, 74.4 36, 73.8 36.5 M73.8 36.5 C73.2 36.8, 72.6 37.2, 71.4 37.9 M73.8 36.5 C73.1 36.9, 72.5 37.2, 71.4 37.9 M71.4 37.9 C70.6 38.3, 69.9 38.7, 68.9 39.2 M71.4 37.9 C70.4 38.4, 69.5 38.9, 68.9 39.2 M68.9 39.2 C68.2 39.5, 67.6 39.8, 66.4 40.3 M68.9 39.2 C67.9 39.6, 67 40.1, 66.4 40.3 M66.4 40.3 C65.5 40.6, 64.7 40.9, 63.7 41.3 M66.4 40.3 C65.7 40.6, 65.1 40.8, 63.7 41.3 M63.7 41.3 C62.9 41.5, 62 41.8, 61.1 42.1 M63.7 41.3 C63 41.5, 62.2 41.7, 61.1 42.1 M61.1 42.1 C60.5 42.2, 60 42.3, 58.3 42.7 M61.1 42.1 C60.4 42.2, 59.6 42.4, 58.3 42.7 M58.3 42.7 C57.6 42.8, 56.8 42.9, 55.6 43.1 M58.3 42.7 C57.5 42.8, 56.7 43, 55.6 43.1 M55.6 43.1 C54.9 43.2, 54.3 43.3, 52.8 43.4 M55.6 43.1 C54.8 43.2, 54.1 43.3, 52.8 43.4 M52.8 43.4 C52.1 43.4, 51.4 43.5, 50 43.5 M52.8 43.4 C52.1 43.4, 51.4 43.5, 50 43.5 M50 43.5 C50 43.5, 50 43.5, 50 43.5 M50 43.5 C50 43.5, 50 43.5, 50 43.5 M50 43.5 C17.1 43.5, -15.8 43.5, -50 43.5 M50 43.5 C21.1 43.5, -7.9 43.5, -50 43.5 M-50 43.5 C-50.7 43.5, -51.3 43.5, -52.8 43.4 M-50 43.5 C-50.9 43.5, -51.7 43.4, -52.8 43.4 M-52.8 43.4 C-53.8 43.3, -54.7 43.2, -55.6 43.1 M-52.8 43.4 C-53.7 43.3, -54.6 43.2, -55.6 43.1 M-55.6 43.1 C-56.2 43, -56.9 42.9, -58.3 42.7 M-55.6 43.1 C-56.6 43, -57.6 42.8, -58.3 42.7 M-58.3 42.7 C-59.2 42.5, -60 42.3, -61.1 42.1 M-58.3 42.7 C-58.9 42.6, -59.5 42.4, -61.1 42.1 M-61.1 42.1 C-61.7 41.9, -62.3 41.7, -63.7 41.3 M-61.1 42.1 C-61.9 41.8, -62.7 41.6, -63.7 41.3 M-63.7 41.3 C-64.5 41, -65.3 40.7, -66.4 40.3 M-63.7 41.3 C-64.8 40.9, -65.8 40.5, -66.4 40.3 M-66.4 40.3 C-67.1 40, -67.9 39.6, -68.9 39.2 M-66.4 40.3 C-66.9 40.1, -67.5 39.8, -68.9 39.2 M-68.9 39.2 C-69.5 38.9, -70.1 38.6, -71.4 37.9 M-68.9 39.2 C-69.7 38.8, -70.5 38.4, -71.4 37.9 M-71.4 37.9 C-72 37.5, -72.6 37.2, -73.8 36.5 M-71.4 37.9 C-72 37.5, -72.7 37.1, -73.8 36.5 M-73.8 36.5 C-74.3 36.1, -74.8 35.7, -76.1 34.9 M-73.8 36.5 C-74.4 36, -75.1 35.5, -76.1 34.9 M-76.1 34.9 C-76.6 34.4, -77.1 34, -78.2 33.1 M-76.1 34.9 C-76.6 34.4, -77.1 34, -78.2 33.1 M-78.2 33.1 C-78.9 32.5, -79.6 31.9, -80.3 31.2 M-78.2 33.1 C-79 32.4, -79.8 31.7, -80.3 31.2 M-80.3 31.2 C-80.7 30.8, -81.1 30.4, -82.2 29.2 M-80.3 31.2 C-80.9 30.6, -81.6 29.9, -82.2 29.2 M-82.2 29.2 C-82.9 28.4, -83.7 27.6, -84 27.1 M-82.2 29.2 C-82.8 28.6, -83.4 27.9, -84 27.1 M-84 27.1 C-84.6 26.4, -85.1 25.8, -85.7 24.9 M-84 27.1 C-84.4 26.6, -84.8 26.1, -85.7 24.9 M-85.7 24.9 C-86.2 24.1, -86.7 23.4, -87.2 22.6 M-85.7 24.9 C-86.2 24.1, -86.7 23.4, -87.2 22.6 M-87.2 22.6 C-87.5 22, -87.8 21.5, -88.6 20.1 M-87.2 22.6 C-87.5 22, -87.8 21.5, -88.6 20.1 M-88.6 20.1 C-88.9 19.6, -89.1 19, -89.8 17.6 M-88.6 20.1 C-88.9 19.4, -89.3 18.7, -89.8 17.6 M-89.8 17.6 C-90.2 16.6, -90.6 15.6, -90.9 15 M-89.8 17.6 C-90.1 16.8, -90.4 16.1, -90.9 15 M-90.9 15 C-91.2 14.1, -91.5 13.2, -91.7 12.4 M-90.9 15 C-91.1 14.4, -91.3 13.8, -91.7 12.4 M-91.7 12.4 C-91.9 11.8, -92 11.2, -92.4 9.7 M-91.7 12.4 C-91.9 11.8, -92.1 11.1, -92.4 9.7 M-92.4 9.7 C-92.6 9, -92.7 8.3, -93 6.9 M-92.4 9.7 C-92.6 8.8, -92.8 7.8, -93 6.9 M-93 6.9 C-93.1 6.2, -93.2 5.4, -93.3 4.2 M-93 6.9 C-93.1 6.2, -93.2 5.4, -93.3 4.2 M-93.3 4.2 C-93.4 3.5, -93.4 2.9, -93.5 1.4 M-93.3 4.2 C-93.4 3.3, -93.4 2.4, -93.5 1.4 M-93.5 1.4 C-93.5 0.6, -93.5 -0.2, -93.5 -1.4 M-93.5 1.4 C-93.5 0.5, -93.5 -0.3, -93.5 -1.4 M-93.5 -1.4 C-93.5 -2, -93.4 -2.6, -93.3 -4.2 M-93.5 -1.4 C-93.4 -2.4, -93.4 -3.4, -93.3 -4.2 M-93.3 -4.2 C-93.2 -5, -93.1 -5.9, -93 -6.9 M-93.3 -4.2 C-93.2 -5.2, -93.1 -6.1, -93 -6.9 M-93 -6.9 C-92.8 -7.7, -92.7 -8.4, -92.4 -9.7 M-93 -6.9 C-92.8 -7.8, -92.7 -8.6, -92.4 -9.7 M-92.4 -9.7 C-92.2 -10.4, -92 -11.2, -91.7 -12.4 M-92.4 -9.7 C-92.2 -10.7, -91.9 -11.7, -91.7 -12.4 M-91.7 -12.4 C-91.5 -13, -91.3 -13.6, -90.9 -15 M-91.7 -12.4 C-91.5 -13.2, -91.2 -14, -90.9 -15 M-90.9 -15 C-90.5 -16, -90.1 -17, -89.8 -17.6 M-90.9 -15 C-90.6 -15.6, -90.4 -16.2, -89.8 -17.6 M-89.8 -17.6 C-89.4 -18.4, -89 -19.3, -88.6 -20.1 M-89.8 -17.6 C-89.4 -18.4, -89 -19.3, -88.6 -20.1 M-88.6 -20.1 C-88.1 -21, -87.7 -21.8, -87.2 -22.6 M-88.6 -20.1 C-88.2 -20.9, -87.8 -21.6, -87.2 -22.6 M-87.2 -22.6 C-86.9 -23, -86.6 -23.5, -85.7 -24.9 M-87.2 -22.6 C-86.8 -23.2, -86.4 -23.8, -85.7 -24.9 M-85.7 -24.9 C-85.3 -25.5, -84.9 -26, -84 -27.1 M-85.7 -24.9 C-85.1 -25.6, -84.6 -26.4, -84 -27.1 M-84 -27.1 C-83.6 -27.7, -83.1 -28.2, -82.2 -29.2 M-84 -27.1 C-83.5 -27.8, -82.9 -28.4, -82.2 -29.2 M-82.2 -29.2 C-81.7 -29.8, -81.1 -30.4, -80.3 -31.2 M-82.2 -29.2 C-81.7 -29.8, -81.2 -30.4, -80.3 -31.2 M-80.3 -31.2 C-79.8 -31.7, -79.3 -32.1, -78.2 -33.1 M-80.3 -31.2 C-79.7 -31.8, -79.1 -32.3, -78.2 -33.1 M-78.2 -33.1 C-77.5 -33.7, -76.7 -34.3, -76.1 -34.9 M-78.2 -33.1 C-77.4 -33.8, -76.5 -34.5, -76.1 -34.9 M-76.1 -34.9 C-75.5 -35.2, -75 -35.6, -73.8 -36.5 M-76.1 -34.9 C-75.1 -35.5, -74.2 -36.1, -73.8 -36.5 M-73.8 -36.5 C-73.2 -36.8, -72.7 -37.1, -71.4 -37.9 M-73.8 -36.5 C-73 -36.9, -72.2 -37.4, -71.4 -37.9 M-71.4 -37.9 C-70.5 -38.4, -69.5 -38.9, -68.9 -39.2 M-71.4 -37.9 C-70.8 -38.2, -70.3 -38.5, -68.9 -39.2 M-68.9 -39.2 C-68 -39.6, -67.1 -40, -66.4 -40.3 M-68.9 -39.2 C-68.3 -39.5, -67.7 -39.7, -66.4 -40.3 M-66.4 -40.3 C-65.4 -40.7, -64.5 -41, -63.7 -41.3 M-66.4 -40.3 C-65.7 -40.6, -65 -40.8, -63.7 -41.3 M-63.7 -41.3 C-63 -41.5, -62.3 -41.7, -61.1 -42.1 M-63.7 -41.3 C-63.2 -41.4, -62.6 -41.6, -61.1 -42.1 M-61.1 -42.1 C-60.3 -42.2, -59.6 -42.4, -58.3 -42.7 M-61.1 -42.1 C-60.1 -42.3, -59.2 -42.5, -58.3 -42.7 M-58.3 -42.7 C-57.6 -42.8, -56.9 -42.9, -55.6 -43.1 M-58.3 -42.7 C-57.4 -42.9, -56.4 -43, -55.6 -43.1 M-55.6 -43.1 C-54.8 -43.2, -54.1 -43.3, -52.8 -43.4 M-55.6 -43.1 C-54.9 -43.2, -54.3 -43.3, -52.8 -43.4 M-52.8 -43.4 C-51.8 -43.4, -50.8 -43.5, -50 -43.5 M-52.8 -43.4 C-51.8 -43.4, -50.7 -43.5, -50 -43.5 M-50 -43.5 C-50 -43.5, -50 -43.5, -50 -43.5 M-50 -43.5 C-50 -43.5, -50 -43.5, -50 -43.5" stroke="#292725" stroke-width="1.3" fill="none" stroke-dasharray="0 0" style=""/></g><g class="label" style="" transform="translate(-60, -31.5)"><rect/><foreignObject width="120" height="63"><div xmlns="http://www.w3.org/1999/xhtml" style="display: table; white-space: break-spaces; line-height: 1.5; max-width: 120px; text-align: center; width: 120px;"><span class="nodeLabel"><p>구현 0줄로 종결<br />L2 캐시 · Frontend 최적화</p></span></div></foreignObject></g></g></g></g></g><defs><filter id="my-svg-drop-shadow" height="130%" width="130%"><feDropShadow dx="4" dy="4" stdDeviation="0" flood-opacity="0.06" flood-color="#000000"/></filter></defs><defs><filter id="my-svg-drop-shadow-small" height="150%" width="150%"><feDropShadow dx="2" dy="2" stdDeviation="0" flood-opacity="0.06" flood-color="#000000"/></filter></defs><linearGradient id="my-svg-gradient" gradientUnits="objectBoundingBox" x1="0%" y1="0%" x2="100%" y2="0%"><stop offset="0%" stop-color="#292725" stop-opacity="1"/><stop offset="100%" stop-color="#696866" stop-opacity="1"/></linearGradient></svg>